<?xml version="1.0" encoding="utf-8"?>
<!-- Generator: Adobe Adobe Illustrator 24.2.0, SVG Export Plug-In . SVG Version: 6.00 Build 0)  -->
<svg version="1.1" id="Layer_5" xmlns="http://www.w3.org/2000/svg" xmlns:xlink="http://www.w3.org/1999/xlink" x="0px" y="0px"
	 viewBox="0 0 650 800" style="enable-background:new 0 0 650 800;" xml:space="preserve">
<style type="text/css">
	.st0{fill:none;stroke:#FCF8F1;stroke-width:10;stroke-linecap:round;stroke-miterlimit:10;}
	.st1{fill:#FCF8F1;}
</style>
<g id="Layer_4">
	<path class="st0" d="M346.68,84.91l223.63,388c3.86,6.7,2.75,15.15-2.7,20.62L343.37,718.62c-6.69,6.71-17.56,6.71-24.25,0
		L94.39,492.97c-5.47-5.49-6.56-13.98-2.67-20.68L317.07,84.85C323.68,73.48,340.11,73.51,346.68,84.91z"/>
</g>
<g id="Layer_2">
	<g>
		<path class="st1" d="M522.28,483.16l-11.81,10.82c-1.21,1.11-3.06,1.17-4.34,0.14l-10-8.06l-9.06,7.3
			c-1.21,0.97-2.93,0.98-4.15,0.02L470,483.16l-14.44,11.42c-3.24,2.56-7.14,4.13-11.22,4.54c-1.42,0.14-2.77,0.72-3.81,1.7
			l-2.42,2.3c-1.52,1.44-0.5,4,1.6,4h0H470h26.14h4.15h21.99h5.82h5.09c1.14,0,2.24-0.46,3.05-1.27l2-2
			c1.73-1.73,1.67-4.56-0.14-6.21L522.28,483.16z"/>
	</g>
	<g>
		<path class="st1" d="M140.34,483.16l11.81,10.82c1.21,1.11,3.06,1.17,4.34,0.14l10-8.06l9.06,7.3c1.21,0.97,2.93,0.98,4.15,0.02
			l12.93-10.22l14.44,11.42c3.24,2.56,7.14,4.13,11.22,4.54c1.42,0.14,2.77,0.72,3.81,1.7l2.42,2.3c1.52,1.44,0.5,4-1.6,4l0,0
			h-30.29h-26.14h-4.15h-21.99h-5.82h-5.09c-1.14,0-2.24-0.46-3.05-1.27l-2-2c-1.73-1.73-1.67-4.56,0.14-6.21L140.34,483.16z"/>
	</g>
	<path class="st1" d="M517.3,420.15c3.05,0.44,5.63-3.21,3.87-5.74l-10.13-17.54c-5.12-8.87-20.8-9.15-28.16,6.48
		c-10.34-4.63-20.12,4.56-20.12,13.2l-36.29-0.01c-3.24-7.63-12.1-7.19-14.97,0.02c0,0-3.13-0.23-3.66,2.77
		c-0.08,0.48,0.3,0.92,0.79,0.91L517.3,420.15z"/>
	<path class="st1" d="M145.23,420.15c-3.05,0.44-5.63-3.21-3.87-5.74l10.13-17.54c5.12-8.87,20.8-9.15,28.16,6.48
		c10.34-4.63,20.12,4.56,20.12,13.2l36.29-0.01c3.24-7.63,12.1-7.19,14.97,0.02c0,0,3.13-0.23,3.66,2.77
		c0.08,0.48-0.3,0.92-0.78,0.91L145.23,420.15z"/>
	<g>
		<path class="st1" d="M343.79,133.87c-2.31-2.31-5.08-3.87-8.02-4.69c0.22,0.2,0.43,0.4,0.64,0.61c6.24,6.24,6.24,16.37,0,22.61
			c-6.24,6.24-16.37,6.24-22.61,0c-0.21-0.21-0.41-0.42-0.61-0.64c0.82,2.94,2.38,5.71,4.69,8.02c7.15,7.15,18.75,7.15,25.91,0
			C350.94,152.62,350.94,141.02,343.79,133.87z"/>
	</g>
	<path class="st1" d="M303.62,267.96l118.04-0.01c2.28,0,3.45-2.73,1.88-4.38c-4.42-4.64-12.13-11.32-19.94-11.32
		c-11.97,0-17.41,9.34-17.41,9.34l-22.55-0.12c-9.98-27.1-38.52-20.78-44.11-3.08c-8.13-7.38-16.55-2.59-19.12,5.2
		C299.7,265.74,301.35,267.96,303.62,267.96z"/>
	<path class="st1" d="M295.17,336.78l-87.99-0.01c-1.7,0-2.57-2.03-1.4-3.26c3.3-3.46,9.05-8.44,14.86-8.44
		c8.92,0,12.98,6.96,12.98,6.96l16.81-0.09c7.44-20.2,28.72-15.49,32.88-2.3c6.06-5.5,12.34-1.93,14.25,3.87
		C298.09,335.12,296.87,336.78,295.17,336.78z"/>
	<path class="st1" d="M356.78,675.87h-51.21c-3.71,0-5.57,4.48-2.94,7.11l22,22c3.62,3.62,9.48,3.62,13.1,0l22-22
		C362.34,680.35,360.49,675.87,356.78,675.87z"/>
	<g>
		<path class="st1" d="M512.13,520.3l-77.4,0c-3.95,0-7.14-3.2-7.14-7.14v-44.33l2.63-4.55h-3.39c-0.7-1.4-1.85-2.54-3.27-3.21
			l-3.01-26.5l-3.01,26.5c-1.42,0.68-2.57,1.81-3.27,3.21h-3.39l2.63,4.55v32.54c0,3.71-4.48,5.57-7.11,2.94l-3.98-3.98
			c-1.39-1.39-2.17-3.28-2.17-5.25v-74.86v-14.09V358.6l-6.13,53.67l-7.95,7.95v53.81c0,3.71-4.48,5.57-7.11,2.94l-3.57-3.57
			c-1.39-1.39-2.17-3.28-2.17-5.25v-88.27l-14.09-16.78v83.99c0,3.71-4.48,5.57-7.11,2.94l-5.74-5.74c0,0,0,0,0,0V343.27h-3.71
			l-11.43-35.92l-11.43,35.92h-3.71v97.81c0,1.97-0.78,3.86-2.17,5.25l-3.57,3.57c-2.62,2.62-7.11,0.76-7.11-2.94v-55.68
			l-14.09,14.09v62.65c0,1.97-0.78,3.86-2.17,5.25l-3.57,3.57c-2.62,2.62-7.11,0.76-7.11-2.94v-53.66l-7.95-7.95l-6.13-53.67v47.54
			v14.09v74.72c0,1.97-0.78,3.86-2.17,5.25l-3.78,3.78c-2.62,2.62-7.11,0.76-7.11-2.94v-32.2l2.63-4.55h-3.39
			c-0.7-1.4-1.85-2.54-3.27-3.21l-3.01-26.52l-3.01,26.52c-1.42,0.68-2.57,1.81-3.27,3.21h-3.39l2.63,4.55v44.33
			c0,3.95-3.2,7.14-7.14,7.14l-77.43,0c-3.69,0-5.56,4.46-2.96,7.09l4.93,4.99c1.4,1.41,3.3,2.21,5.28,2.21h57.85
			c3.71,0,5.56,4.48,2.94,7.11l-5.01,5.01c-1.39,1.39-3.28,2.17-5.25,2.17h-29.25c-3.7,0-5.56,4.47-2.95,7.1l4.97,5
			c1.39,1.4,3.29,2.19,5.27,2.19h29.26h78.16c1.97,0,3.86,0.78,5.25,2.17l5.01,5.01c2.62,2.62,0.77,7.11-2.94,7.11h-93.93
			c-3.71,0-5.57,4.48-2.94,7.11l30.41,30.41c1.39,1.39,3.28,2.17,5.25,2.17h76.61c3.93,0,7.12,3.18,7.14,7.11l0,0
			c0.02,3.96-3.18,7.18-7.14,7.18h-55.35c-3.71,0-5.57,4.48-2.94,7.11l20.88,20.88c1.39,1.39,3.28,2.17,5.25,2.17h93.73
			c1.97,0,3.86-0.78,5.25-2.17l20.88-20.88c2.62-2.62,0.76-7.11-2.94-7.11h0c-2.65,0-4.81-2.15-4.82-4.8l-0.01-2.56
			c-0.02-3.96,3.19-7.18,7.14-7.18h19.2c1.97,0,3.86-0.78,5.25-2.17l30.16-30.16c2.62-2.62,0.76-7.11-2.94-7.11h-93.93
			c-3.71,0-5.57-4.48-2.94-7.11l5.01-5.01c1.39-1.39,3.28-2.17,5.25-2.17h78.16l29.52,0c1.97,0,3.86-0.78,5.25-2.18l5-5.01
			c2.62-2.62,0.76-7.1-2.94-7.1h-29.53c-1.97,0-3.86-0.78-5.25-2.17l-5.01-5.01c-2.62-2.62-0.76-7.11,2.94-7.11h58.06
			c1.96,0,3.84-0.78,5.23-2.16l5.05-5.02C517.7,524.8,515.85,520.3,512.13,520.3z M370.28,624.06l0,0.25
			c-0.02,3.93-3.21,7.11-7.14,7.11h-16.84c-3.93,0-7.13-3.18-7.14-7.11l0-0.25c-0.02-3.96,3.19-7.18,7.14-7.18h16.85
			C367.09,616.88,370.29,620.1,370.28,624.06z M364.92,520.23c-14.92,2.2-26.17,9.71-28.48,19l-5.2,20.92l-5.2-20.92
			c-2.31-9.29-13.56-16.8-28.48-19l-7.32-1.08l7.32-1.08c14.92-2.2,26.17-9.71,28.48-19l5.2-20.92l5.2,20.92
			c2.31,9.29,13.56,16.8,28.48,19l7.32,1.08L364.92,520.23z"/>
	</g>
	<g>
		<path class="st1" d="M228.05,372.1l2.24-0.33l-2.24-0.33c-4.56-0.67-7.99-2.97-8.7-5.8l-1.59-6.39l-1.59,6.39
			c-0.7,2.84-4.14,5.13-8.7,5.8l-2.24,0.33l2.24,0.33c4.56,0.67,7.99,2.97,8.7,5.8l1.59,6.39l1.59-6.39
			C220.06,375.07,223.5,372.77,228.05,372.1z"/>
	</g>
	<g>
		<path class="st1" d="M315,212.44l2.23-0.33l-2.23-0.33c-4.55-0.67-7.98-2.96-8.68-5.79l-1.58-6.38l-1.58,6.38
			c-0.7,2.83-4.13,5.12-8.68,5.79l-2.23,0.33l2.23,0.33c4.55,0.67,7.98,2.96,8.68,5.79l1.58,6.38l1.58-6.38
			C307.02,215.41,310.45,213.12,315,212.44z"/>
	</g>
	<g>
		<path class="st1" d="M444.37,328.02l3.4-0.5l-3.4-0.5c-6.92-1.02-12.14-4.51-13.21-8.82l-2.41-9.7l-2.41,9.7
			c-1.07,4.31-6.29,7.79-13.21,8.82l-3.4,0.5l3.4,0.5c6.92,1.02,12.14,4.51,13.21,8.82l2.41,9.7l2.41-9.7
			C432.23,332.52,437.45,329.04,444.37,328.02z"/>
	</g>
</g>
</svg>
